<?xml version="1.0" standalone="no"?>
<!DOCTYPE svg PUBLIC "-//W3C//DTD SVG 20010904//EN"
 "http://www.w3.org/TR/2001/REC-SVG-20010904/DTD/svg10.dtd">
<svg version="1.0" xmlns="http://www.w3.org/2000/svg"
 width="760.000000pt" height="760.000000pt" viewBox="0 0 760.000000 760.000000"
 preserveAspectRatio="xMidYMid meet">
<metadata>
Created by potrace 1.11, written by Peter Selinger 2001-2013
</metadata>
<g transform="translate(0.000000,760.000000) scale(0.100000,-0.100000)"
fill="#000000" stroke="none">
<path d="M7500 5524 c-384 -83 -835 -306 -1206 -596 -111 -87 -101 -71 -199
-305 -22 -51 -40 -91 -41 -90 -4 3 -12 92 -13 137 l-1 34 -56 -54 c-119 -117
-273 -317 -349 -453 -36 -66 -53 -117 -60 -184 -4 -32 -8 -65 -10 -73 -2 -8
-7 -42 -10 -75 -3 -33 -8 -69 -10 -80 -2 -11 -4 -37 -4 -58 -1 -54 -17 -38
-20 20 -2 26 -4 64 -6 83 -2 19 -4 44 -4 55 -2 48 -41 -39 -66 -146 -23 -102
-23 -383 0 -505 14 -76 50 -173 60 -162 2 1 32 89 68 193 84 249 117 330 203
505 150 307 335 586 564 850 80 92 303 310 317 310 27 0 10 -25 -79 -118 -121
-123 -109 -111 -214 -237 -286 -345 -523 -769 -670 -1199 -24 -71 -46 -138
-49 -150 -3 -12 -21 -82 -40 -156 -19 -74 -37 -148 -40 -165 -14 -82 -25 -111
-51 -130 -103 -76 -516 -360 -548 -377 -21 -11 -57 -26 -78 -34 -38 -13 -39
-13 -59 19 -23 37 -24 118 -2 182 8 22 63 130 123 240 234 430 293 591 294
795 1 111 -9 144 -53 184 -27 25 -103 25 -153 2 -132 -63 -277 -297 -370 -596
-36 -118 -57 -205 -73 -300 -4 -25 -10 -54 -12 -65 -3 -11 -6 -92 -7 -180 l-2
-160 -70 -46 c-96 -64 -186 -101 -258 -106 -59 -5 -63 -4 -94 28 -35 36 -40
49 -18 49 7 0 50 18 94 40 144 72 232 183 238 299 7 133 -84 223 -226 224
-151 1 -272 -109 -329 -298 -12 -38 -22 -94 -24 -122 -1 -29 -5 -53 -8 -53 -3
0 -14 -8 -25 -19 -33 -30 -174 -109 -227 -127 -62 -21 -108 -12 -141 26 -33
40 -40 94 -33 266 l7 144 48 63 49 62 174 5 c96 3 182 10 192 16 23 13 33 74
15 96 -13 16 -86 25 -231 27 l-48 1 25 43 c96 162 126 250 122 359 -4 99 -24
156 -72 198 -69 60 -133 53 -208 -23 -84 -85 -156 -239 -211 -452 l-23 -90
-122 -6 c-128 -6 -140 -11 -140 -55 0 -31 29 -52 85 -60 28 -3 59 -8 70 -10
11 -2 35 -7 53 -10 28 -5 32 -9 25 -28 -4 -11 -7 -113 -8 -225 l0 -203 -123
-59 c-68 -33 -125 -59 -127 -59 -1 0 -3 21 -4 48 -1 68 -8 108 -31 187 -11 38
-20 81 -20 94 0 19 53 100 81 121 13 11 29 50 29 73 0 43 -31 69 -87 74 -93 9
-117 -11 -317 -274 -114 -151 -242 -260 -394 -335 -152 -77 -308 -117 -437
-114 -154 5 -226 65 -233 196 -2 38 1 84 7 103 27 80 128 157 245 186 26 7 99
11 161 10 66 -1 121 3 133 10 24 13 33 47 31 116 -3 82 -40 109 -219 163 -97
30 -135 48 -166 81 -38 40 -53 93 -42 151 20 110 110 162 278 164 127 0 232
-19 347 -65 73 -29 77 -37 59 -101 -41 -147 -26 -185 57 -141 90 46 127 95
127 169 -1 222 -310 377 -660 328 -104 -14 -145 -26 -227 -65 -166 -81 -243
-227 -206 -392 17 -75 36 -111 84 -158 46 -45 82 -65 159 -90 54 -17 54 -17
18 -18 -20 -1 -48 -5 -63 -11 -14 -5 -38 -12 -53 -15 -93 -17 -234 -125 -279
-215 -49 -98 -62 -245 -29 -338 19 -53 66 -122 108 -157 117 -100 341 -134
583 -89 103 19 275 91 374 158 59 40 71 43 71 20 0 -29 68 -83 126 -100 143
-41 405 15 608 131 44 25 80 44 81 42 1 -1 12 -22 24 -47 62 -122 152 -159
282 -115 59 20 109 44 256 127 l52 29 17 -28 c100 -160 299 -194 519 -88 38
18 92 50 119 69 l50 35 28 -51 c47 -86 88 -118 148 -118 53 0 179 48 278 106
103 61 527 376 541 403 5 9 12 36 16 61 4 25 9 52 10 60 1 8 6 34 10 57 3 23
12 46 18 52 7 5 63 14 126 20 291 29 464 100 631 258 67 62 170 193 170 215 0
6 -49 7 -117 4 l-118 -6 155 79 c86 43 161 86 168 94 18 21 182 484 197 555 6
30 5 33 -11 29 -11 -3 -55 -11 -99 -17 -44 -7 -87 -13 -95 -15 -22 -4 -89 -14
-135 -21 -69 -9 -99 -14 -127 -20 -16 -3 -28 -3 -28 -1 0 5 31 17 290 112 85
31 162 59 170 62 20 8 27 10 43 12 32 3 51 37 107 196 32 94 70 200 83 237 16
44 20 68 13 70 -6 2 -53 3 -103 3 -51 0 -93 2 -93 5 0 3 46 16 103 29 56 13
114 32 128 42 15 10 36 41 47 68 60 138 200 365 334 538 43 56 78 104 78 107
0 8 -14 6 -90 -10z m-2434 -1980 c0 -16 -3 -45 -7 -64 -4 -19 -10 -48 -13 -65
-20 -112 -228 -574 -246 -545 -5 8 -7 17 -5 20 1 3 6 37 10 75 20 212 118 494
201 582 38 40 59 39 60 -3z m-1402 -77 c15 -41 -5 -103 -80 -254 -61 -123 -68
-133 -94 -133 -28 0 -28 0 -18 43 5 23 12 52 14 63 20 106 78 258 112 297 22
25 55 17 66 -16z m619 -675 c21 -23 28 -67 16 -100 -20 -53 -105 -120 -171
-136 -26 -6 -28 -4 -28 22 0 106 50 203 113 221 46 13 52 13 70 -7z m-1487
-263 c8 -30 13 -81 12 -113 -1 -50 -6 -64 -32 -94 -28 -32 -33 -34 -77 -30
-35 4 -57 14 -92 43 l-46 38 107 106 c59 59 108 106 110 105 2 -1 10 -26 18
-55z"/>
<path d="M27 4702 c-15 -3 -17 -23 -18 -160 -1 -178 -1 -544 0 -582 l1 -25
203 1 c111 1 204 2 207 3 3 0 5 30 5 66 l0 65 -30 1 c-16 0 -73 0 -126 -1 -71
-1 -98 2 -101 12 -2 7 -4 149 -3 316 l1 302 -26 1 c-14 0 -41 1 -61 2 -20 1
-43 1 -52 -1z"/>
<path d="M534 4699 c-18 -6 -19 -23 -19 -385 l0 -378 228 -4 227 -4 0 71 0 71
-150 0 -150 0 0 90 0 91 48 -2 c26 -1 84 -1 130 0 l82 1 0 65 c0 45 -4 65 -12
66 -7 1 -60 3 -118 4 -58 1 -111 3 -117 4 -14 1 -19 148 -5 166 4 7 61 11 150
10 l142 -1 0 68 0 68 -187 1 c-104 0 -198 2 -209 3 -12 1 -30 -1 -40 -5z"/>
<path d="M1319 4697 c-1 -1 -2 -174 -3 -384 l-2 -383 201 1 c189 0 205 2 251
23 27 13 59 35 72 48 46 51 61 162 29 224 -21 41 -65 83 -94 90 l-24 6 30 30
c69 68 67 198 -5 277 -50 56 -105 69 -296 70 -87 0 -159 0 -159 -2z m277 -136
c12 -1 33 -12 47 -26 68 -68 17 -157 -90 -157 -90 -1 -83 -8 -83 91 0 99 0 99
75 94 17 -1 40 -2 51 -2z m111 -345 c20 -23 24 -37 19 -64 -11 -70 -50 -89
-176 -84 l-80 4 0 88 c0 49 4 90 10 92 5 2 53 1 106 -2 91 -5 97 -7 121 -34z"/>
<path d="M1987 4691 c-2 -3 -3 -134 -2 -291 1 -270 2 -287 22 -325 62 -116
218 -180 368 -150 52 10 129 50 164 86 67 67 72 91 72 357 1 130 0 257 0 282
l-1 45 -75 0 c-41 0 -75 -2 -76 -5 0 -3 -2 -122 -3 -265 -2 -177 -7 -268 -15
-285 -7 -14 -31 -38 -53 -54 -71 -51 -169 -34 -220 36 -23 32 -23 38 -25 303
l-3 270 -75 1 c-41 1 -77 -1 -78 -5z"/>
<path d="M2739 4696 c-5 -3 -6 -766 -1 -767 11 -1 105 -1 130 0 22 1 22 2 22
161 l0 160 38 0 37 0 82 -163 83 -162 85 0 c47 0 85 3 85 6 0 4 -20 42 -43 85
-24 44 -61 111 -82 149 -21 39 -42 74 -46 79 -5 6 10 20 38 35 27 15 61 45 78
69 27 39 30 51 30 115 -1 79 -16 119 -66 168 -55 54 -87 61 -286 63 -101 1
-183 2 -184 2z m348 -153 c42 -19 59 -60 43 -107 -16 -50 -42 -61 -148 -64
l-93 -3 2 94 2 95 81 0 c50 0 93 -6 113 -15z"/>
<path d="M3398 4692 l-38 -3 -1 -287 c0 -158 -1 -325 -2 -370 -1 -46 1 -89 5
-95 5 -8 73 -12 228 -12 121 0 220 2 221 5 7 38 3 123 -5 126 -7 3 -75 6 -151
7 l-140 2 0 85 0 85 128 3 c139 3 129 -3 129 67 0 80 11 73 -119 73 -65 0
-123 1 -128 1 -11 1 -12 151 -2 168 3 5 69 8 146 8 159 -2 150 -6 149 83 -1
46 -4 52 -22 53 -70 3 -367 3 -398 1z"/>
<path d="M4157 4683 c-3 -5 -58 -138 -122 -298 -64 -159 -123 -303 -130 -320
-16 -35 -55 -134 -55 -139 0 -2 38 -3 85 -3 l84 0 27 73 26 72 170 0 170 0 15
-35 c8 -20 20 -52 26 -72 l12 -36 87 -2 86 -2 -37 93 c-20 51 -88 224 -151
384 l-115 291 -87 1 c-48 0 -89 -3 -91 -7z m152 -327 c29 -77 50 -145 47 -151
-3 -8 -39 -10 -117 -8 -62 2 -113 4 -114 6 -1 1 25 73 58 160 37 96 63 153 68
145 4 -7 30 -76 58 -152z"/>
<path d="M4705 4676 c-2 -6 -3 -137 -2 -291 2 -267 3 -282 24 -321 27 -51 78
-97 141 -126 67 -32 225 -33 293 -1 61 27 122 84 148 135 18 38 20 61 21 329
l1 288 -76 0 c-41 0 -75 -4 -76 -7 0 -4 -3 -123 -5 -265 -4 -271 -7 -289 -53
-331 -12 -11 -42 -25 -68 -31 -76 -19 -145 12 -181 80 -12 25 -15 73 -14 293
l1 262 -75 -1 c-46 -1 -77 -6 -79 -13z"/>
<path d="M9 2899 c0 -153 0 -376 0 -494 0 -118 0 -223 0 -233 1 -16 16 -18
209 -16 222 1 259 7 352 54 211 108 320 352 260 583 -42 166 -158 293 -325
357 -55 21 -79 23 -277 26 l-218 2 -1 -279z m427 79 c77 -27 143 -94 183 -183
8 -16 15 -68 17 -115 3 -71 -1 -95 -20 -142 -38 -93 -101 -155 -188 -185 -35
-12 -126 -18 -198 -14 -13 1 -15 41 -14 304 1 166 2 314 3 329 l1 27 88 -3
c48 -2 105 -10 128 -18z"/>
<path d="M1004 3168 c-5 -7 -1 -96 11 -293 2 -33 4 -68 4 -77 1 -15 11 -18 71
-18 60 0 70 3 71 18 1 9 3 28 4 42 1 14 5 81 9 150 4 69 9 137 11 153 2 15 0
28 -3 28 -35 6 -174 3 -178 -3z"/>
</g>
</svg>
